<svg width="110" viewBox="0 0 37 21" xmlns="http://www.w3.org/2000/svg" xmlns:xlink="http://www.w3.org/1999/xlink"><defs><path id="a" d="M0 0h37v21H0z"/></defs><g fill="none" fill-rule="evenodd"><mask id="b" fill="#fff"><use xlink:href="#a"/></mask><use xlink:href="#a"/><path d="M.005 1.995v17.01A2 2 0 002 21h33.005A2 2 0 0037 19.005V1.995A2 2 0 0035.005 0H2A2 2 0 00.005 1.995zm35-.995a1 1 0 01.995.995v17.01a1 1 0 01-.995.995H1.995A1 1 0 011 19.005V1.995A1 1 0 011.995 1h33.01z" fill="#A6E22D" mask="url(#b)"/><g mask="url(#b)" fill="#75715E"><path d="M12 6h16v2H12zM2 6h9v2H2zM29 6h6v2h-6zM2 12h9v2H2zM12 12h6v2h-6zM9 9h16v2H9zM26 9h9v2h-9zM2 9h6v2H2z"/></g></g></svg>