<svg width="110" viewBox="0 0 37 21" xmlns="http://www.w3.org/2000/svg" xmlns:xlink="http://www.w3.org/1999/xlink"><defs><path id="a" d="M0 0h37v21H0z"/></defs><g fill="none" fill-rule="evenodd"><mask id="b" fill="#fff"><use xlink:href="#a"/></mask><use xlink:href="#a"/><path d="M2 2.999v1.002c0 .552.446.999.998.999h7.004c.551 0 .998-.443.998-.999V2.999A.998.998 0 0010.002 2H2.998A.995.995 0 002 2.999zM10.002 3L10 4.001C10 4.003 2.998 4 2.998 4L3 2.999C3 2.997 10.002 3 10.002 3zM29 3v3a1 1 0 00.99 1h4.02c.546 0 .99-.444.99-1V3a1 1 0 00-.99-1h-4.02A.993.993 0 0029 3zm5.01 0C33.997 3 34 6 34 6c0 .004-4.01 0-4.01 0 .012 0 .01-3 .01-3 0-.004 4.01 0 4.01 0z" fill="#75715E" mask="url(#b)"/><path d="M12 8.003v4.994A1 1 0 0013 14h14c.552 0 1-.438 1-1.003V8.003A1 1 0 0027 7H13c-.552 0-1 .438-1 1.003zM27 8v4.997C27 13.005 13 13 13 13V8.003C13 7.995 27 8 27 8z" fill="#A6E22D" mask="url(#b)"/><path d="M2 9.5h33" stroke="#66D9EF" mask="url(#b)"/><path fill="#66D9EF" mask="url(#b)" d="M2 10h33V9H2z"/></g></svg>