<svg width="110" viewBox="0 0 37 21" xmlns="http://www.w3.org/2000/svg" xmlns:xlink="http://www.w3.org/1999/xlink"><defs><path id="a" d="M0 0h37v21H0z"/></defs><g fill="none" fill-rule="evenodd"><mask id="b" fill="#fff"><use xlink:href="#a"/></mask><use xlink:href="#a"/><g mask="url(#b)" fill="#75715E"><path d="M1 16h36v1H1zM5 9.998v2.004A2 2 0 006.998 14h3.004A2 2 0 0012 12.002V9.998A2 2 0 0010.002 8H6.998A2 2 0 005 9.998zM10.002 9a1 1 0 01.998.998v2.004a1 1 0 01-.998.998H6.998A1 1 0 016 12.002V9.998A1 1 0 016.998 9h3.004zM26 11.005v.99c0 1.107.898 2.005 1.998 2.005h3.004A1.999 1.999 0 0033 11.995v-.99A2.004 2.004 0 0031.002 9h-3.004A1.999 1.999 0 0026 11.005zM31.002 10c.548 0 .998.45.998 1.005v.99A1 1 0 0131.002 13h-3.004c-.548 0-.998-.45-.998-1.005v-.99A1 1 0 0127.998 10h3.004z"/></g><path d="M14 7.998v4.004c0 1.103.887 1.998 2.006 1.998h5.988A1.997 1.997 0 0024 12.002V7.998A1.995 1.995 0 0021.994 6h-5.988A1.997 1.997 0 0014 7.998zM21.994 7A.995.995 0 0123 7.998v4.004a.997.997 0 01-1.006.998h-5.988A.995.995 0 0115 12.002V7.998A.997.997 0 0116.006 7h5.988z" fill="#A6E22D" mask="url(#b)"/></g></svg>