<svg width="110" viewBox="0 0 37 21" xmlns="http://www.w3.org/2000/svg" xmlns:xlink="http://www.w3.org/1999/xlink"><defs><path id="a" d="M0 0h37v21H0z"/></defs><g fill="none" fill-rule="evenodd"><mask id="b" fill="#fff"><use xlink:href="#a"/></mask><use xlink:href="#a"/><g mask="url(#b)" fill="#75715E"><path d="M0 0h37v1H0zM0 20h37v1H0z"/></g><path d="M4 6.009v8.982C4 16.101 4.902 17 5.995 17h25.01A2.003 2.003 0 0033 14.991V6.01C33 4.899 32.098 4 31.005 4H5.995A2.003 2.003 0 004 6.009zM31.005 5c.543 0 .995.454.995 1.009v8.982c0 .557-.448 1.009-.995 1.009H5.995C5.452 16 5 15.546 5 14.991V6.01C5 5.452 5.448 5 5.995 5h25.01z" fill="#A6E22D" mask="url(#b)"/></g></svg>