<svg width="110" viewBox="0 0 37 21" xmlns="http://www.w3.org/2000/svg" xmlns:xlink="http://www.w3.org/1999/xlink"><defs><path id="a" d="M0 0h37v21H0z"/></defs><g fill="none" fill-rule="evenodd"><mask id="b" fill="#fff"><use xlink:href="#a"/></mask><use xlink:href="#a"/><path d="M13 13.75V13h5v5h-5v-.75l2-1.75-2-1.75z" fill="#75715E" opacity=".8" mask="url(#b)"/><path fill="#75715E" mask="url(#b)" d="M19 13h5v5h-5z"/><path fill="#75715E" opacity=".3" mask="url(#b)" d="M12 3h5v5h-5z"/><path fill="#75715E" opacity=".5" mask="url(#b)" d="M18 3h5v5h-5z"/><path fill="#75715E" opacity=".7" mask="url(#b)" d="M24 3h5v5h-5z"/><g mask="url(#b)"><path fill="#66D9EF" d="M8 12l4 3.5L8 19z"/><path d="M8.5 15.5C2 16 3.5 9 8.5 9s18.5 2.5 22 2.5 5.5-6 0-6" stroke="#66D9EF"/></g><path d="M.005 1.995v17.01A2 2 0 002 21h33.005A2 2 0 0037 19.005V1.995A2 2 0 0035.005 0H2A2 2 0 00.005 1.995zm35-.995a1 1 0 01.995.995v17.01a1 1 0 01-.995.995H1.995A1 1 0 011 19.005V1.995A1 1 0 011.995 1h33.01z" fill="#A6E22D" mask="url(#b)"/></g></svg>