<svg width="110" viewBox="0 0 37 21" xmlns="http://www.w3.org/2000/svg" xmlns:xlink="http://www.w3.org/1999/xlink"><defs><path id="a" d="M0 0h37v21H0z"/></defs><g fill="none" fill-rule="evenodd"><mask id="b" fill="#fff"><use xlink:href="#a"/></mask><use xlink:href="#a"/><g mask="url(#b)" fill="#75715E"><path d="M24 3v15a1 1 0 001.01 1h2.98A1.01 1.01 0 0029 18V3a1 1 0 00-1.01-1h-2.98A1.01 1.01 0 0024 3zm3.986 0c.017 0 .014-.002.014 0v15c0-.006-.009 0-.014 0h-2.972c-.017 0-.014.002-.014 0V3c0 .006.009 0 .014 0h2.972zM30 3v15a1 1 0 001.01 1h2.98A1.01 1.01 0 0035 18V3a1 1 0 00-1.01-1h-2.98A1.01 1.01 0 0030 3zm3.986 0c.017 0 .014-.002.014 0v15c0-.006-.009 0-.014 0h-2.972c-.017 0-.014.002-.014 0V3c0 .006.009 0 .014 0h2.972z"/></g><path d="M2 3v15c0 .552.439 1 1.003 1h18.994C22.55 19 23 18.545 23 18V3c0-.552-.439-1-1.003-1H3.003C2.45 2 2 2.455 2 3zm19.996 0C22.003 3 22 18 22 18c0-.004-18.996 0-18.996 0C2.996 18 3 3 3 3c0 .004 18.996 0 18.996 0z" fill="#A6E22D" mask="url(#b)"/><path d="M23 10v1h-2v3l-4-3.5L21 7v3h2zm-7-4h1v9h-1V6zM8 6h1v9H8V6zm-6 4v1h2v3l4-3.5L4 7v3H2z" fill="#66D9EF" mask="url(#b)"/></g></svg>