<svg width="110" viewBox="0 0 37 21" xmlns="http://www.w3.org/2000/svg" xmlns:xlink="http://www.w3.org/1999/xlink"><defs><path id="a" d="M0 0h37v21H0z"/></defs><g fill="none" fill-rule="evenodd"><mask id="b" fill="#fff"><use xlink:href="#a"/></mask><use xlink:href="#a"/><g mask="url(#b)" fill="#75715E"><path d="M12 3h16v5H12zM2 3h9v5H2zM29 3h8v5h-8z"/></g><path d="M37 10v9.005A2 2 0 0135.005 21H2a2 2 0 01-1.995-1.995V1.995A2 2 0 012 0h33.005a2 2 0 011.728 1H1.995A1 1 0 001 1.995v17.01a1 1 0 00.995.995h33.01a1 1 0 00.995-.995V10h1z" fill="#A6E22D" mask="url(#b)"/></g></svg>