<svg width="110" viewBox="0 0 37 21" xmlns="http://www.w3.org/2000/svg" xmlns:xlink="http://www.w3.org/1999/xlink"><defs><path id="a" d="M0 0h37v21H0z"/></defs><g fill="none" fill-rule="evenodd"><mask id="b" fill="#fff"><use xlink:href="#a"/></mask><use xlink:href="#a"/><path fill="#66D9EF" mask="url(#b)" d="M29 3.5V3h1v11h3l-3.5 4-3.5-4h3z"/><g mask="url(#b)" fill="#75715E"><path d="M3 14h20v5H3z"/><path opacity=".7" d="M3 8h20v5H3z"/><path opacity=".4" d="M3 2h20v5H3z"/></g><path d="M.005 1.995v17.01A2 2 0 002 21h33.005A2 2 0 0037 19.005V1.995A2 2 0 0035.005 0H2A2 2 0 00.005 1.995zm35-.995a1 1 0 01.995.995v17.01a1 1 0 01-.995.995H1.995A1 1 0 011 19.005V1.995A1 1 0 011.995 1h33.01z" fill="#A6E22D" mask="url(#b)"/></g></svg>