<svg width="110" viewBox="0 0 37 21" xmlns="http://www.w3.org/2000/svg" xmlns:xlink="http://www.w3.org/1999/xlink"><defs><path id="a" d="M0 0h37v21H0z"/></defs><g fill="none" fill-rule="evenodd"><mask id="b" fill="#fff"><use xlink:href="#a"/></mask><use xlink:href="#a"/><g mask="url(#b)" fill="#75715E"><path opacity=".3" d="M12 13h5v5h-5z"/><path opacity=".5" d="M18 13h5v5h-5z"/><path opacity=".7" d="M24 13h5v5h-5z"/><path d="M19 3h5v5h-5z"/><path d="M13 3.75V3h5v5h-5v-.75l2-1.75-2-1.75z" opacity=".8"/></g><g mask="url(#b)"><path fill="#66D9EF" d="M8 9l4-3.5L8 2z"/><path d="M8.5 5.5C2 5 3.5 12 8.5 12s18.5-2.5 22-2.5 5.5 6 0 6" stroke="#66D9EF"/></g><path d="M.005 1.995v17.01A2 2 0 002 21h33.005A2 2 0 0037 19.005V1.995A2 2 0 0035.005 0H2A2 2 0 00.005 1.995zm35-.995a1 1 0 01.995.995v17.01a1 1 0 01-.995.995H1.995A1 1 0 011 19.005V1.995A1 1 0 011.995 1h33.01z" fill="#A6E22D" mask="url(#b)"/></g></svg>